<svg width="1841" height="2363" xmlns="http://www.w3.org/2000/svg" xmlns:xlink="http://www.w3.org/1999/xlink" xml:space="preserve" overflow="hidden"><defs><clipPath id="clip0"><rect x="4690" y="-399" width="1841" height="2363"/></clipPath></defs><g clip-path="url(#clip0)" transform="translate(-4690 399)"><path d="M5003.02 602.634C4985.79 589.357 4967.56 616.901 4960.17 637.552 4939.48 694.602 4885.3 740.336 4824.72 741.807 4764.13 743.287 4704.03 694.103 4701.07 633.62 4700.09 606.567 4708.96 580.012 4721.77 556.41 4761.17 482.641 4839.49 428.543 4923.23 426.082 5006.97 423.63 5091.69 476.248 5118.78 555.429 5163.6 686.238 5085.78 817.047 5003.52 908.025 4841.95 1086.55 4827.17 1489.8 5160.16 1459.8 5240.94 1452.43 5317.29 1408.17 5363.6 1341.78 5384.77 1417.02 5398.07 1494.72 5403 1573.4 5249.81 1598.49 5082.33 1621.11 4947.86 1543.41 4837.52 1479.47 4770.53 1354.57 4760.68 1227.68 4750.83 1102.78 4789.74 962.622 4864.61 861.8 4917.81 790.002 5029.63 723.118 5011.89 619.844 5010.42 613.459 5008.44 606.567 5003.02 602.634Z" fill="#FFFFFF" fill-rule="evenodd"/><path d="M5008.58 593.332C4988.41 579.07 4968.25 598.745 4958.4 615.959 4952.99 625.306 4950.04 635.144 4945.62 644.491 4941.19 654.329 4935.28 664.167 4928.89 673.024 4904.29 706.961 4863.46 731.56 4820.66 731.069 4779.83 730.57 4739.5 705.489 4721.29 669.09 4699.15 624.816 4720.31 574.637 4746.38 537.257 4797.05 464.949 4889.53 420.675 4977.09 443.303 5018.42 454.122 5056.3 478.23 5082.37 512.167 5111.88 550.047 5122.21 599.726 5120.25 646.953 5117.79 697.123 5100.08 745.822 5075.97 789.605 5052.36 831.909 5022.85 869.297 4990.87 905.696 4951.51 950.952 4923.47 1005.06 4904.79 1061.63 4886.58 1118.19 4877.23 1179.19 4881.66 1238.72 4886.09 1293.81 4902.32 1348.41 4936.76 1392.19 4973.16 1437.94 5027.27 1463.03 5084.34 1470.4 5170.42 1481.23 5258.97 1457.12 5324.4 1399.57 5341.61 1384.32 5357.35 1367.1 5370.64 1347.92 5364.24 1346.93 5357.35 1346.44 5350.96 1345.46 5372.11 1420.23 5384.9 1496.47 5389.82 1574.19 5392.28 1570.75 5395.23 1567.31 5397.69 1563.86 5290.45 1581.58 5177.8 1598.79 5070.07 1577.64 5018.42 1567.8 4968.74 1548.12 4925.44 1517.63 4886.09 1489.59 4853.13 1451.72 4828.54 1410.39 4775.9 1322.83 4760.15 1219.53 4773.44 1118.69 4780.33 1065.56 4795.08 1013.42 4816.73 964.723 4836.4 920.449 4861.49 877.655 4894.45 841.746 4948.56 782.72 5031.21 719.751 5022.85 629.731 5021.86 617.439 5019.89 604.159 5010.06 595.302 4999.72 585.955 4984.47 601.207 4994.81 610.546 5002.18 616.949 5001.69 631.701 5001.69 640.558 5001.69 650.396 5000.7 660.234 4998.25 670.071 4993.33 689.747 4983.49 707.942 4971.69 724.674 4946.6 760.092 4913.63 789.605 4884.12 821.081 4814.76 896.349 4772.45 997.189 4755.73 1098.03 4739 1201.33 4750.31 1307.09 4799.51 1400.56 4822.63 1444.33 4853.63 1484.67 4891.51 1516.64 4932.33 1551.07 4980.54 1575.67 5031.7 1589.94 5139.43 1619.95 5254.05 1607.15 5362.77 1590.43 5376.54 1588.46 5390.31 1586 5404.08 1584.04 5408.52 1583.54 5412.45 1578.13 5411.96 1573.7 5407.04 1494.51 5393.75 1415.8 5372.6 1339.56 5370.15 1330.21 5357.85 1329.72 5352.92 1337.1 5325.87 1375.47 5288.98 1405.96 5246.67 1425.65 5207.32 1444.33 5164.52 1451.72 5120.74 1451.22 5089.25 1450.73 5058.76 1446.3 5029.24 1434.49 5005.63 1425.15 4983.49 1410.39 4965.29 1391.7 4929.38 1354.32 4910.69 1302.17 4904.79 1251.01 4897.9 1191.98 4905.77 1132.96 4922.98 1076.38 4939.71 1020.8 4967.26 966.694 5004.65 922.91 5036.62 886.021 5067.12 849.123 5091.22 806.329 5116.8 761.564 5135.49 712.375 5140.41 661.215 5145.34 612.517 5136.97 559.394 5111.39 516.591 5087.78 478.23 5051.37 449.207 5010.06 431.985 4922.49 395.586 4823.61 424.118 4758.19 489.54 4723.75 523.976 4694.24 570.704 4690.31 620.392 4686.85 666.138 4712.93 708.441 4750.81 732.05 4789.67 756.649 4836.9 758.611 4878.72 740.416 4920.03 722.212 4952.5 686.304 4968.74 644.491 4972.18 635.635 4976.11 626.288 4982.02 618.911 4984.48 615.959 4987.42 612.517 4990.87 611.045 4993.33 610.055 4994.32 610.546 4997.26 612.517 5009.07 619.893 5019.89 601.207 5008.58 593.332Z" fill="#431A11" fill-rule="evenodd"/><path d="M5900.56 249.146C5986.15 263.41 6064.84 304.227 6125.34 380.454 6278.31 574.209 6340.78 942.55 6364.88 1186.48 6389.47 1434.82 6331.43 1687.1 6060.91 1759.39 5792.36 1831.19 5404.28 1814.47 5282.29 1519.41 5156.38 1215.48 5233.6 433.565 5596.1 289.475 5693 251.115 5801.21 232.428 5900.56 249.146Z" fill="#FFFFFF" fill-rule="evenodd"/><path d="M5897.44 259.208C5985.48 274.465 6063.18 318.76 6118.27 389.14 6165 448.69 6198.93 518.583 6225.98 588.966 6256.97 668.702 6279.59 750.892 6298.27 834.072 6316.48 914.79 6330.24 996.489 6340.58 1078.68 6350.42 1153 6359.26 1228.3 6357.79 1303.61 6356.32 1375.46 6346.48 1447.81 6320.9 1515.24 6296.31 1579.23 6256.47 1637.3 6202.38 1679.63 6143.35 1725.4 6073.02 1748.04 6000.73 1762.8 5932.36 1777.08 5863.01 1784.46 5793.17 1784.46 5722.84 1784.46 5652.51 1777.08 5584.64 1758.37 5520.7 1740.66 5458.72 1712.6 5407.08 1670.77 5354.95 1628.44 5314.13 1573.32 5289.54 1510.31 5271.34 1463.56 5259.54 1414.35 5251.67 1365.13 5242.32 1306.55 5237.89 1247 5236.42 1187.45 5234.95 1121.99 5237.89 1056.04 5244.79 991.072 5251.67 924.133 5262.49 857.694 5277.74 792.237 5292.49 728.743 5311.68 665.748 5336.26 605.699 5358.88 550.084 5386.92 496.434 5421.84 447.218 5452.82 403.909 5489.71 364.041 5533.98 334.019 5555.62 319.253 5579.23 306.948 5603.33 297.105 5651.53 278.403 5701.69 264.62 5752.35 257.73 5800.55 251.825 5849.73 251.332 5897.44 259.208 5911.21 261.667 5916.62 240.505 5903.34 238.535 5800.55 221.31 5694.31 239.52 5597.92 276.926 5545.78 297.105 5500.04 328.603 5460.7 367.979 5419.38 409.817 5385.45 458.542 5357.9 510.221 5326.92 567.308 5302.82 627.848 5283.64 689.37 5262.99 754.337 5248.23 821.267 5236.91 888.696 5225.6 957.108 5218.72 1026.02 5216.26 1094.92 5213.8 1159.4 5214.78 1223.87 5220.68 1287.86 5225.6 1343.96 5234.45 1400.08 5248.72 1454.7 5264.46 1512.78 5288.55 1568.89 5324.95 1617.13 5367.25 1672.24 5422.82 1715.07 5485.29 1745.09 5549.72 1775.61 5619.55 1792.83 5689.88 1801.19 5762.19 1809.56 5834.98 1808.58 5907.27 1800.21 5942.68 1796.27 5977.6 1790.37 6012.03 1782.99 6048.92 1775.11 6085.32 1765.75 6120.24 1751.49 6189.58 1722.94 6249.59 1677.17 6292.87 1615.64 6334.19 1557.08 6357.79 1487.67 6369.6 1417.3 6382.38 1341.01 6382.38 1263.24 6375 1186.96 6367.14 1107.72 6356.81 1028.48 6343.52 950.218 6328.77 864.093 6310.08 778.948 6285 694.787 6261.39 615.051 6231.88 535.806 6192.04 462.968 6151.72 389.14 6099.09 321.221 6023.84 279.878 5986.46 259.208 5945.63 245.918 5903.34 238.535 5889.57 236.568 5883.67 257.238 5897.44 259.208Z" fill="#431A11" fill-rule="evenodd"/><path d="M6012.11 560C6126.81 550.158 6227.23 489.131 6267.6 354.285 6284.34 298.674 6292.22 235.68 6322.74 185.482 6354.73 131.841 6409.87 100.343 6454.67 59.0033 6495.53 21.6011 6504.88-13.8339 6439.9-27.6126 6398.54-36.4725 6356.21-35.9798 6315.35-43.8547 6258.74-54.6811 6250.86-73.3817 6218.87-117.673 6164.23-191.986 6079.55-242.185 5992.42-268.268 5931.87-286.476 5867.38-293.366 5804.37-286.476 5774.83-283.032 5743.81-268.268 5718.22-279.094 5684.25-292.877 5647.82-341.598 5620.75-366.203 5564.63-415.91 5543.95-367.68 5536.57-314.038 5527.71-249.074 5556.75-184.111 5530.17-121.119 5522.78-103.402 5514.42-86.6687 5505.55-70.4298 5459.77 15.6941 5406.11 86.5645 5424.82 195.818 5444.02 307.533 5522.78 398.087 5618.78 453.206" fill="#FFFFFF" fill-rule="evenodd"/><path d="M6012.74 570.927C6091.48 564.034 6167.76 532.512 6218.94 470.952 6247.48 436.483 6267.17 396.095 6279.47 352.758 6293.75 303.017 6301.13 250.321 6324.75 204.026 6347.39 159.703 6385.78 128.676 6424.16 98.1414 6442.37 83.8604 6461.07 69.0851 6476.33 51.357 6487.15 39.0441 6498.48 22.7905 6497.98 5.55548 6497.49-12.1733 6484.2-24.4866 6468.45-31.381 6443.35-42.2154 6414.81-44.6799 6387.74-47.1408 6360.18-50.0948 6332.13-51.5735 6304.57-58.468 6288.82-62.4076 6274.06-68.3166 6262.74-79.1507 6250.44-90.9709 6241.09-105.745 6230.75-119.537 6216.48-139.234 6200.74-157.459 6183.51-174.201 6147.58-208.183 6105.75-234.778 6060.97-255.463 6011.76-277.625 5959.59-292.4 5906.44-298.801 5877.9-302.247 5848.86-302.741 5820.32-300.279 5806.54-299.293 5792.76-297.322 5778.98-294.368 5766.68-291.414 5753.88-287.966 5741.08-287.473 5718.94-286.98 5701.71-301.262 5686.46-315.547 5669.72-331.304 5654.47-348.543 5638.23-365.285 5623.47-380.063 5605.75-396.312 5583.6-398.777 5565.89-400.745 5551.61-389.418 5543.25-375.137 5533.41-357.897 5528.97-337.708 5526.52-318.008 5522.58-289.934 5525.04-262.358 5527.99-234.284 5530.95-207.197 5533.9-179.62 5528.48-152.533 5523.08-124.953 5508.8-99.344 5495.51-74.7209 5473.37-33.3524 5448.27 6.54123 5431.05 50.3713 5412.83 96.1732 5406.44 144.929 5414.31 193.685 5428.58 286.274 5485.17 367.533 5557.52 424.169 5575.24 437.957 5593.93 450.762 5613.63 462.093 5625.43 468.987 5636.26 450.271 5624.45 443.377 5548.66 399.542 5482.23 332.566 5451.22 249.335 5434.98 205.997 5427.6 158.717 5435.47 112.919 5442.85 69.0851 5462.53 29.1958 5483.7-9.21939 5495.02-29.9047 5506.83-50.0948 5517.66-70.7812 5530.46-94.9106 5544.23-120.519 5549.65-147.607 5559.98-201.289 5541.77-254.477 5547.19-308.649 5549.16-326.874 5552.6-347.063 5561.46-363.317 5568.35-376.123 5577.2-381.045 5590.99-375.63 5609.68-367.749 5623.96-350.021 5637.74-335.736 5653.48-319.487 5668.74-302.247 5686.46-288.459 5704.67-274.178 5723.86-264.819 5747.97-267.28 5760.77-268.759 5772.58-271.713 5784.88-274.178 5797.68-277.132 5810.97-278.607 5824.25-279.593 5880.36-283.533 5936.46-276.146 5989.61-259.893 6034.89-246.105 6078.19-226.404 6117.57-199.81 6156.44-173.708 6189.41-141.698 6216.48-103.777 6226.33-89.9884 6235.67-75.7033 6248.47-63.8831 6260.77-52.5561 6275.54-44.6799 6291.78-40.2464 6342.96-24.9792 6398.57-31.381 6449.75-15.6204 6457.14-13.1591 6465.99-10.2051 6471.4-4.29321 6475.35-0.35318 6476.33 3.09348 6476.33 7.52695 6476.33 12.4491 6473.38 18.8544 6469.93 24.2693 6465.01 32.1498 6459.1 38.5515 6452.7 44.9553 6419.24 77.9513 6378.39 103.067 6345.91 137.049 6329.18 154.777 6314.9 174.478 6304.08 196.639 6293.26 219.294 6285.38 243.427 6278.98 267.56 6266.68 313.851 6258.32 361.132 6236.66 403.979 6219.44 438.448 6195.32 468.987 6164.81 492.624 6135.77 515.278 6101.82 530.547 6065.89 539.906 6048.17 544.335 6030.45 547.291 6012.25 548.764 5998.96 550.738 5998.47 572.409 6012.74 570.927Z" fill="#431A11" fill-rule="evenodd"/><path d="M6257.38 352.768C6273.59 298.139 6281.95 236.13 6311.45 186.423 6342.9 133.763 6396.98 102.265 6441.22 61.9101 6481.03 24.9992 6490.86-9.94405 6426.97-23.7229 6386.65-32.0903 6344.87-32.0903 6304.56-39.9642 6248.53-50.7912 6241.65-69.0004 6209.69-112.311 6158.57-182.194 6080.41-229.931 5998.81-257 5996.84-226.979 5998.32-196.465 6004.71-165.952 6019.94-93.6091 6060.26-27.6599 6070.09 45.6677 6083.86 147.053 6038.13 248.924 6046 351.291 6050.92 414.287 6075.5 472.852 6110.4 526 6176.76 496.972 6230.34 442.833 6257.38 352.768Z" fill="#EFC083" fill-rule="evenodd"/><path d="M6130.99 221.108C6128.53 177.143 6079.95 143.547 6037.75 155.404 6025.47 158.862 6016.15 165.781 6008.3 176.154 6005.36 180.106 6007.8 186.527 6011.74 188.996 6016.64 191.962 6021.06 189.49 6024.5 185.539 6030.38 178.128 6038.72 173.682 6048.54 172.201 6057.38 170.718 6067.68 172.696 6077 176.154 6095.66 183.563 6111.85 200.852 6112.83 221.108 6113.33 232.964 6131.48 232.964 6130.99 221.108Z" fill="#431A11" fill-rule="evenodd"/><path d="M5757.96 69.1073C5755.51 25.1405 5706.94-8.45254 5664.74 3.40448 5652.47 6.86296 5643.15 13.7781 5635.29 24.1517 5632.36 28.1044 5634.81 34.5254 5638.73 36.9976 5643.64 39.9615 5648.05 37.4929 5651.49 33.5398 5657.38 26.1294 5665.72 21.6828 5675.53 20.1998 5684.37 18.7196 5694.67 20.694 5703.99 24.1517 5722.64 31.5622 5738.83 48.8546 5739.81 69.1073 5740.3 80.9643 5758.94 80.9643 5757.96 69.1073Z" fill="#431A11" fill-rule="evenodd"/><path d="M5618.81 106.565C5564.98 81.9717 5492.87 120.339 5483.97 178.379 5478.05 215.269 5499.78 253.636 5530.9 273.311 5570.41 298.396 5617.33 283.64 5649.43 252.162 5691.41 210.352 5671.17 130.668 5618.81 106.565Z" fill="#F27276" fill-rule="evenodd" fill-opacity="0.321569"/><path d="M6145.81 279.564C6091.98 254.973 6019.87 293.339 6010.98 351.378 6005.05 388.269 6026.78 426.636 6057.89 446.31 6097.41 471.398 6144.33 456.638 6176.43 425.164 6218.41 383.351 6198.17 304.16 6145.81 279.564Z" fill="#F27276" fill-rule="evenodd" fill-opacity="0.321569"/><path d="M6237.27 7.22313C6281.09 9.68079 6324.41 16.074 6367.25 26.4043 6365.28 20.9929 6362.81 16.074 6360.85 10.6652 6347.06 34.7631 6324.91 51.9797 6298.32 59.8487 6285.03 63.7843 6290.45 84.4397 6304.23 80.5041 6335.74 71.6532 6363.31 50.0108 6379.56 21.4853 6383 15.5816 6380.05 7.22313 6373.16 5.7463 6328.85-4.58142 6283.07-11.467 6237.77-13.9283 6223.49-15.4015 6223.49 6.23834 6237.27 7.22313Z" fill="#431A11" fill-rule="evenodd"/><path d="M5675.15 227.469C5624.5 162.382 5552.22 119.486 5478.46 85.4625 5396.34 47.0006 5310.28 17.91 5221.77-1.81424 5172.11-13.1555 5121.46-21.0452 5070.32-25.977 5065.89-26.467 5065.89-19.0713 5070.32-18.5802 5159.81-9.7043 5248.33 8.53972 5333.88 36.6466 5376.67 50.4525 5418.46 66.7252 5459.28 84.9688 5496.65 101.735 5533.53 120.472 5567.95 142.661 5606.31 167.313 5641.71 196.898 5669.73 232.895 5672.69 236.346 5678.1 230.921 5675.15 227.469Z" fill="#431A11" fill-rule="evenodd"/><path d="M5640.75 220.604C5582.18 173.904 5509.81 150.311 5437.45 134.581 5355.24 116.885 5270.57 108.528 5186.39 109.021 5138.64 109.509 5090.89 112.953 5043.14 118.85 5039.2 119.342 5038.71 126.223 5043.14 125.239 5125.35 114.425 5209.04 112.461 5292.22 119.342 5370.5 125.731 5450.25 139.005 5524.58 165.058 5564.45 179.312 5602.85 198.484 5636.33 225.028 5639.77 227.976 5644.2 223.552 5640.75 220.604Z" fill="#431A11" fill-rule="evenodd"/><path d="M5641.5 251.873C5546.51 219.388 5446.1 204.623 5345.69 206.101 5245.77 208.068 5146.35 226.77 5052.34 261.222 4999.67 280.91 4948.98 305.517 4900.74 335.047 4896.8 337.51 4900.25 343.907 4904.18 341.447 4988.85 289.278 5082.36 252.363 5179.82 232.186 5276.79 212.005 5377.68 207.576 5476.12 220.866 5531.74 228.248 5586.38 241.043 5639.54 258.763 5643.96 260.237 5645.93 253.348 5641.5 251.873Z" fill="#431A11" fill-rule="evenodd"/><path d="M5685.86 198.037C5690.61 201.573 5695.88 194.5 5691.14 190.964 5686.39 187.428 5681.12 194.5 5685.86 198.037Z" fill="#431A11" fill-rule="evenodd"/><path d="M5717.65 172.143C5721.88 175.286 5726.56 169 5722.35 165.858 5718.12 162.712 5713.44 169 5717.65 172.143Z" fill="#431A11" fill-rule="evenodd"/><path d="M5712.65 204.036C5716.88 207.573 5721.57 200.5 5717.34 196.964 5713.13 193.427 5708.44 200.5 5712.65 204.036Z" fill="#431A11" fill-rule="evenodd"/><path d="M5993.87 316.037C5998.61 319.572 6003.88 312.501 5999.14 308.965 5994.39 305.426 5989.11 312.501 5993.87 316.037Z" fill="#431A11" fill-rule="evenodd"/><path d="M5880.71 264.509C5960.46 232.352 6048.08 233.343 6132.27 241.256 6218.91 249.667 6305.05 267.972 6387.76 294.193 6434.53 309.038 6480.8 326.848 6525.6 347.626 6529.54 349.606 6533.47 343.173 6529.04 341.195 6449.29 304.585 6365.61 276.384 6279.46 257.583 6236.63 248.184 6193.3 240.763 6149.5 235.815 6106.18 230.867 6062.85 227.898 6019.53 229.384 5971.29 231.362 5923.04 238.782 5877.75 257.088 5874.31 259.068 5876.28 265.995 5880.71 264.509Z" fill="#431A11" fill-rule="evenodd"/><path d="M5914.14 275.904C5996.75 263.089 6079.35 285.27 6156.54 312.381 6229.8 338.504 6300.6 372.022 6367.47 411.946 6404.84 434.62 6441.22 459.76 6476.13 486.375 6479.57 488.842 6483.02 483.417 6479.57 480.458 6416.64 432.153 6348.79 389.763 6277.5 355.262 6205.71 320.264 6128.51 290.197 6050.34 274.426 6005.11 265.06 5958.39 261.609 5912.67 269.003 5908.25 269.99 5909.72 276.397 5914.14 275.904Z" fill="#431A11" fill-rule="evenodd"/><path d="M5893.5 302.983C5990.97 322.168 6085.02 359.061 6169.69 410.224 6254.87 461.385 6331.18 527.299 6394.69 603.541 6430.13 646.345 6461.64 693.073 6488.23 742.263 6490.2 746.197 6496.6 742.754 6494.63 738.82 6447.37 650.769 6383.86 571.574 6309.52 504.671 6235.17 438.258 6150 384.147 6057.93 345.781 6005.75 323.645 5951.1 307.41 5895.47 296.096 5891.03 295.111 5889.07 301.998 5893.5 302.983Z" fill="#431A11" fill-rule="evenodd"/><path d="M5983.66 290.011C5987.87 293.64 5992.57 286.385 5988.34 282.758 5984.12 279.65 5979.44 286.903 5983.66 290.011Z" fill="#431A11" fill-rule="evenodd"/><path d="M5959.6 309.037C5963.86 312.573 5968.59 305.498 5964.33 301.964 5960.54 298.428 5955.33 305.498 5959.6 309.037Z" fill="#431A11" fill-rule="evenodd"/><path d="M5956.48 275.461C5959.92 266.128 5945.2 261.704 5941.76 271.038 5933.91 291.676 5917.71 323.123 5891.71 318.7 5872.09 315.261 5858.35 295.115 5854.43 276.445 5851.48 262.688 5852.46 248.929 5857.37 236.156 5857.37 235.664 5857.37 235.664 5857.37 235.173 5857.86 234.189 5858.35 233.698 5858.84 232.717 5866.2 214.047 5873.07 194.884 5880.43 176.214 5881.91 172.283 5878.95 167.861 5875.03 166.385 5870.62 164.914 5866.69 167.861 5865.22 171.791 5857.86 190.462 5850.99 209.624 5843.63 228.294 5843.63 228.294 5843.63 228.294 5843.63 228.786 5843.14 229.278 5843.14 229.767 5842.65 230.259 5828.91 256.791 5799.96 275.953 5769.54 272.022 5758.26 270.55 5747.46 265.144 5741.58 255.319 5733.23 242.051 5735.69 225.347 5740.1 211.096 5743.04 201.763 5728.32 197.34 5725.38 206.677 5717.04 233.209 5719.01 264.653 5745.5 280.376 5768.56 293.64 5798 289.709 5820.08 276.937 5825.97 273.497 5831.37 269.566 5836.27 264.653 5836.76 282.831 5843.14 300.522 5854.43 314.769 5870.62 334.912 5898.09 343.265 5920.67 328.525 5939.31 314.769 5949.62 294.623 5956.48 275.461Z" fill="#431A11" fill-rule="evenodd"/><path d="M5890.42 151.86C5872.74 143.425 5848.2 144.915 5845.25 164.76 5842.8 182.121 5858.51 202.959 5876.68 201.966 5888.46 201.47 5904.67 190.556 5907.6 178.649 5910.06 166.246 5900.73 156.822 5890.42 151.86Z" fill="#F27276" fill-rule="evenodd"/><path d="M5636.9-253.753C5638.38-252.765 5635.92-254.74 5636.9-253.753 5637.39-253.259 5637.88-252.765 5638.38-252.765 5639.35-251.778 5640.33-251.287 5640.82-250.3 5642.79-248.819 5644.74-246.847 5646.22-245.366 5649.65-241.912 5653.08-237.965 5656.51-234.019 5657-233.03 5657.98-232.046 5658.47-231.059 5657.98-232.046 5657.49-232.046 5658.47-231.059 5658.96-230.565 5659.45-230.071 5659.45-229.578 5660.92-227.606 5662.39-225.631 5663.86-223.659 5666.8-219.218 5669.25-214.778 5671.22-210.336 5673.66-205.405 5681.02-203.431 5685.92-206.39 5690.82-209.846 5692.29-215.765 5689.83-221.193 5680.04-241.418 5664.84-258.688 5647.19-272.5 5645.24-273.982 5641.31-274.472 5638.86-273.488 5636.41-272.994 5633.47-271.019 5632.49-268.554 5631.02-266.087 5630.53-263.125 5631.51-260.166 5632.98-257.7 5634.45-255.724 5636.9-253.753Z" fill="#431A11" fill-rule="evenodd"/><path d="M5845.06 1743.97C5848.5 1821.17 5844.07 1903.29 5804.25 1933.78 5751.65 1974.1 5663.14 1947.55 5639.54 1886.08 5618.89 1832.48 5643.48 1773.47 5645.94 1716.43 5648.39 1663.81 5631.67 1612.18 5615.45 1562.02 5561.85 1396.79 5499.91 1270.91 5406 1087" fill="#FFFFFF" fill-rule="evenodd"/><path d="M5833.8 1743.8C5835.76 1784.12 5836.25 1825.92 5827.89 1865.75 5821.49 1895.75 5809.19 1923.77 5779.16 1935.58 5752.1 1946.39 5719.62 1943.45 5694.04 1929.68 5664.02 1913.95 5645.32 1886.4 5642.37 1852.47 5638.42 1807.23 5653.69 1762.98 5656.14 1718.23 5658.6 1670.04 5645.81 1622.83 5631.54 1577.58 5606.94 1499.4 5577.9 1423.18 5544.93 1348.44 5509.99 1269.26 5471.12 1191.57 5431.74 1114.36 5426.33 1103.55 5420.43 1092.23 5415.02 1081.42 5408.62 1069.12 5389.92 1079.94 5396.31 1092.23 5438.14 1173.87 5479.97 1255.99 5517.37 1339.58 5551.82 1416.3 5581.84 1494.48 5607.92 1574.14 5622.68 1620.37 5637.44 1668.07 5634.98 1717.25 5632.52 1763.47 5616.29 1809.2 5621.69 1856.41 5626.13 1893.78 5644.83 1925.74 5677.31 1945.41 5705.35 1962.13 5740.79 1968.52 5772.78 1960.66 5788.52 1956.73 5803.28 1949.34 5815.59 1939.02 5827.89 1928.2 5836.25 1912.96 5841.67 1897.71 5855.93 1859.85 5857.41 1817.06 5856.92 1777.24 5856.92 1765.93 5856.43 1755.11 5855.93 1743.8 5854.46 1729.54 5833.3 1729.54 5833.8 1743.8Z" fill="#431A11" fill-rule="evenodd"/><path d="M5797 999C5807.82 1200.77 5815.7 1403.02 5831.45 1604.79 5836.37 1666.31 5833.92 1727.33 5842.28 1788.83 5847.7 1830.17 5855.08 1894.64 5891.49 1922.2 5944.65 1961.57 6032.76 1935.98 6056.38 1874.47 6077.05 1820.83 6052.44 1761.77 6049.98 1704.69 6047.52 1652.03 6064.25 1600.36 6080.49 1550.17 6134.14 1384.82 6226.67 1197.33 6269 1025.08" fill="#FFFFFF" fill-rule="evenodd"/><path d="M5786.01 998.465C5794.37 1151.12 5800.77 1303.76 5810.12 1456.41 5815.04 1532.72 5821.44 1608.56 5823.9 1684.89 5824.89 1721.81 5826.85 1758.25 5831.77 1794.68 5835.22 1820.29 5838.66 1846.39 5846.54 1871.5 5854.41 1896.13 5867.21 1919.76 5889.35 1934.53 5909.04 1947.83 5934.14 1953.24 5957.76 1951.77 6007.47 1948.81 6054.7 1917.79 6068.98 1868.55 6078.82 1835.56 6073.9 1800.59 6068.49 1767.11 6062.58 1732.15 6057.66 1698.17 6062.09 1662.73 6066.52 1626.77 6077.84 1591.81 6088.66 1557.35 6099 1525.83 6109.83 1494.81 6121.63 1463.79 6170.35 1334.29 6227.44 1207.74 6265.83 1074.79 6270.26 1059.03 6274.69 1042.78 6278.62 1027.03 6282.07 1013.73 6260.91 1007.83 6257.96 1021.12 6225.97 1152.1 6171.34 1276.18 6122.62 1401.26 6098.51 1462.81 6074.89 1525.34 6056.18 1588.86 6046.34 1622.84 6038.46 1658.29 6038.46 1693.74 6038.46 1727.71 6046.83 1761.2 6051.26 1794.68 6054.7 1824.24 6055.69 1856.23 6039.94 1882.33 6029.12 1900.55 6010.91 1914.34 5991.23 1922.22 5971.05 1929.61 5948.9 1932.07 5927.74 1926.65 5905.59 1921.23 5888.37 1907.45 5877.54 1887.26 5865.73 1865.1 5860.81 1839.99 5856.87 1815.37 5851.95 1784.84 5849 1753.82 5847.52 1722.79 5845.55 1685.87 5845.55 1648.44 5843.1 1611.51 5840.63 1574.09 5837.68 1537.16 5835.22 1499.73 5825.38 1350.54 5818.98 1201.34 5811.11 1052.14 5810.12 1033.93 5809.14 1015.71 5808.15 997.483 5807.17 984.68 5785.51 984.68 5786.01 998.465Z" fill="#431A11" fill-rule="evenodd"/></g></svg>